<?xml version="1.0" encoding="iso-8859-1"?>
<!-- Generator: Adobe Illustrator 19.0.0, SVG Export Plug-In . SVG Version: 6.00 Build 0)  -->
<svg version="1.1" id="Layer_1" xmlns="http://www.w3.org/2000/svg" xmlns:xlink="http://www.w3.org/1999/xlink" x="0px" y="0px"
	 viewBox="0 0 508 508" style="enable-background:new 0 0 508 508;" xml:space="preserve">
<path style="fill:#FF7058;" d="M280,160h-52v-36.4c0-14,11.2-25.2,25.2-25.2h1.2c14,0,25.2,11.2,25.2,25.2V160H280z"/>
<path style="fill:#324A5E;" d="M285.6,165.6h-63.2v-6.4c0-3.2,2.4-5.6,5.6-5.6h51.6c3.2,0,5.6,2.4,5.6,5.6v6.4H285.6z"/>
<g>
	<path style="fill:#e7e7e7;" d="M247.2,116c-3.6,3.2-8.4,4.4-10.4,2.8c-2-2-0.8-6.4,2.8-9.6s8.4-4.4,10.4-2.8
		C252.4,108,250.8,112.4,247.2,116z"/>
	<path style="fill:#e7e7e7;" d="M253.2,74.4c-1.2,0-2.4,0.8-2.4,2v11.2c0,1.2,1.2,2,2.4,2s2.4-0.8,2.4-2V76.4
		C255.6,75.2,254.4,74.4,253.2,74.4z"/>
	<path style="fill:#e7e7e7;" d="M278,84.4c-0.8-0.8-2.4-0.8-3.2,0l-8.4,8c-0.8,0.8-0.8,2.4,0,3.2c0.8,0.8,2.4,0.8,3.2,0l8.4-8
		C278.8,86.8,278.8,85.2,278,84.4z"/>
	<path style="fill:#e7e7e7;" d="M228.4,84.4c0.8-0.8,2.4-0.8,3.2,0l8.4,8c0.8,0.8,0.8,2.4,0,3.2c-0.8,0.8-2.4,0.8-3.2,0l-8.4-8
		C227.6,86.8,227.6,85.2,228.4,84.4z"/>
</g>
<rect x="350.4" y="182.4" style="fill:#2B3B4E;" width="27.2" height="224"/>
<path style="fill:#324A5E;" d="M394.8,406.4v-7.2c0-4.4-3.6-8.4-8.4-8.4h-44.8c-4.4,0-8.4,3.6-8.4,8.4v7.2H394.8z"/>
<rect x="130.4" y="182.4" style="fill:#2B3B4E;" width="27.2" height="224"/>
<path style="fill:#e8e8e8;" d="M414.4,165.6H93.6c-2,0-4,1.6-4,4v98.8c0,2,1.6,4,4,4h320.8c2,0,4-1.6,4-4v-98.8
	C418.4,167.2,416.4,165.6,414.4,165.6z"/>
<g>
	<polygon style="fill:#FF7058;" points="399.6,272.4 366.4,272.4 344,165.6 377.2,165.6 	"/>
	<polygon style="fill:#FF7058;" points="320.8,272.4 288,272.4 265.6,165.6 298.8,165.6 	"/>
	<polygon style="fill:#FF7058;" points="242.4,272.4 209.2,272.4 187.2,165.6 220,165.6 	"/>
	<polygon style="fill:#FF7058;" points="164,272.4 130.8,272.4 108.4,165.6 141.6,165.6 	"/>
</g>
<path style="fill:#324A5E;" d="M174.8,406.4v-7.2c0-4.4-3.6-8.4-8.4-8.4h-44.8c-4.4,0-8.4,3.6-8.4,8.4v7.2H174.8z"/>
<g>
</g>
<g>
</g>
<g>
</g>
<g>
</g>
<g>
</g>
<g>
</g>
<g>
</g>
<g>
</g>
<g>
</g>
<g>
</g>
<g>
</g>
<g>
</g>
<g>
</g>
<g>
</g>
<g>
</g>
</svg>
